<svg xmlns="http://www.w3.org/2000/svg" xmlns:xlink="http://www.w3.org/1999/xlink" width="1800px" height="900px" viewBox="0 0 1800 900" zoomAndPan="disable">

<circle cx="900" cy="450" r="260" style="stroke: rgba(255,255,255,0.2); stroke-width: 0.85px; fill: none;"/>
<circle cx="350" cy="450" r="260" style="stroke: rgba(255,255,255,0.2); stroke-width: 0.85px; fill: none;"/>
<circle cx="1450" cy="450" r="260" style="stroke: rgba(255,255,255,0.2); stroke-width: 0.85px; fill: none;"/>

<circle cx="323" cy="587" r="5" style="stroke: rgba(255,255,255,0.25); stroke-width: 0.85px; fill: none;"/>
<circle cx="424" cy="204" r="5" style="stroke: rgba(255,255,255,0.25); stroke-width: 0.85px; fill: none;"/>
<circle cx="341" cy="286" r="5" style="stroke: rgba(255,255,255,0.25); stroke-width: 0.85px; fill: none;"/>
<circle cx="408" cy="441" r="5" style="stroke: rgba(255,255,255,0.25); stroke-width: 0.85px; fill: none;"/>
<circle cx="347" cy="431" r="5" style="stroke: rgba(255,255,255,0.25); stroke-width: 0.85px; fill: none;"/>
<circle cx="385" cy="321" r="5" style="stroke: rgba(255,255,255,0.25); stroke-width: 0.85px; fill: none;"/>
<circle cx="704" cy="334" r="5" style="stroke: rgba(255,255,255,0.25); stroke-width: 0.85px; fill: none;"/>
<circle cx="1084" cy="325" r="5" style="stroke: rgba(255,255,255,0.25); stroke-width: 0.85px; fill: none;"/>
<circle cx="825" cy="592" r="5" style="stroke: rgba(255,255,255,0.25); stroke-width: 0.85px; fill: none;"/>
<circle cx="1462" cy="430" r="5" style="stroke: rgba(255,255,255,0.25); stroke-width: 0.85px; fill: none;"/>
<circle cx="1532" cy="393" r="5" style="stroke: rgba(255,255,255,0.25); stroke-width: 0.85px; fill: none;"/>
<circle cx="1248" cy="411" r="5" style="stroke: rgba(255,255,255,0.25); stroke-width: 0.85px; fill: none;"/>
<circle cx="1288" cy="359" r="5" style="stroke: rgba(255,255,255,0.25); stroke-width: 0.85px; fill: none;"/>
<circle cx="1360" cy="616" r="5" style="stroke: rgba(255,255,255,0.25); stroke-width: 0.85px; fill: none;"/>
<circle cx="1489" cy="536" r="5" style="stroke: rgba(255,255,255,0.25); stroke-width: 0.85px; fill: none;"/>
<circle cx="1369" cy="532" r="5" style="stroke: rgba(255,255,255,0.25); stroke-width: 0.85px; fill: none;"/>
<circle cx="1582" cy="290" r="5" style="stroke: rgba(255,255,255,0.25); stroke-width: 0.85px; fill: none;"/>
<circle cx="1598" cy="654" r="5" style="stroke: rgba(255,255,255,0.25); stroke-width: 0.85px; fill: none;"/>

</svg>
